<svg width="160" height="160" viewBox="0 0 160 160" fill="none" xmlns="http://www.w3.org/2000/svg">
    <rect x="2.5" y="2.5" width="155" height="155" rx="42.5" fill="white" stroke="#0077E5" stroke-width="5" />
    <path d="M38.9848 121.181C36.0578 120.396 34.3208 117.388 35.1051 114.461L47.2764 69.0368C48.0607 66.1098 51.0693 64.3727 53.9963 65.157V65.157C56.9233 65.9413 58.6604 68.9499 57.8761 71.877L45.7047 117.301C44.9204 120.228 41.9118 121.965 38.9848 121.181V121.181Z" fill="black" />
    <path d="M23.9044 121.676C20.9773 120.892 19.2403 117.883 20.0246 114.956L32.1959 69.5319C32.9802 66.6048 35.9888 64.8678 38.9159 65.6521C41.8429 66.4364 43.5799 69.445 42.7956 72.372L30.6243 117.796C29.84 120.723 26.8314 122.46 23.9044 121.676Z" fill="#0077E5" />
    <path d="M124.543 71.8061C121.616 71.0218 119.879 68.0132 120.663 65.0862L132.834 19.6622C133.619 16.7352 136.627 14.9981 139.554 15.7824C142.481 16.5667 144.218 19.5753 143.434 22.5023L131.263 67.9264C130.478 70.8534 127.47 72.5904 124.543 71.8061Z" fill="#0077E6" />
    <path d="M108.961 72.3012C106.034 71.5169 104.297 68.5083 105.081 65.5813L117.252 20.1572C118.037 17.2302 121.045 15.4932 123.972 16.2775C126.899 17.0618 128.636 20.0704 127.852 22.9974L115.681 68.4215C114.896 71.3485 111.888 73.0855 108.961 72.3012Z" fill="black" />
    <path d="M85.9122 73.6704L65.0781 148.139C64.5464 148.324 63.7267 148.509 62.619 148.694C61.5814 148.971 60.5346 149.11 59.4786 149.11C55.2546 149.11 53.6211 147.399 54.5781 143.979L74.2482 73.6704H47.3202C47.1615 73.2081 47.0416 72.6072 46.9605 71.8676C46.9053 71.0355 47.02 70.111 47.3045 69.0941C47.7442 67.5224 48.4644 66.3206 49.4652 65.4885C50.4918 64.564 51.7252 64.1018 53.1652 64.1018H115.517C115.676 64.564 115.783 65.2112 115.838 66.0432C115.919 66.7828 115.83 67.6149 115.572 68.5394C115.132 70.111 114.399 71.3591 113.372 72.2836C112.345 73.2081 111.112 73.6704 109.672 73.6704H85.9122Z" fill="black" />
</svg>
